<?xml version="1.0" standalone="no"?>
<!DOCTYPE svg PUBLIC "-//W3C//DTD SVG 20010904//EN"
 "http://www.w3.org/TR/2001/REC-SVG-20010904/DTD/svg10.dtd">
<svg version="1.0" xmlns="http://www.w3.org/2000/svg"
 width="127.000000pt" height="127.000000pt" viewBox="0 0 127.000000 127.000000"
 preserveAspectRatio="xMidYMid meet">
<metadata>
Created by potrace 1.11, written by Peter Selinger 2001-2013
</metadata>
<g transform="translate(0.000000,127.000000) scale(0.100000,-0.100000)"
fill="#000000" stroke="none">
<path d="M491 1195 c-125 -35 -282 -150 -328 -239 -9 -17 -19 -33 -22 -36 -7
-5 -43 -93 -48 -120 -58 -260 43 -493 270 -626 32 -19 64 -34 71 -34 7 0 16
-3 20 -7 3 -4 17 -8 29 -10 12 -2 33 -6 47 -10 14 -3 48 -7 75 -8 28 0 56 -5
64 -9 10 -7 12 -5 6 3 -5 10 1 12 28 8 20 -3 37 -2 39 2 2 3 34 16 71 29 112
38 212 115 278 216 153 233 116 521 -90 714 -44 42 -180 117 -231 128 -63 14
-227 13 -279 -1z"/>
</g>
</svg>
